<?xml version="1.0" encoding="UTF-8"?>
<svg width="24px" height="24px" viewBox="0 0 24 24" version="1.1" xmlns="http://www.w3.org/2000/svg" xmlns:xlink="http://www.w3.org/1999/xlink">
    <title>关闭</title>
    <g id="页面-1" stroke="none" stroke-width="1" fill="none" fill-rule="evenodd">
        <g id="组织架构/成员与部门列表/添加部门" transform="translate(-1104.000000, -356.000000)" fill-rule="nonzero">
            <g id="编组-24" transform="translate(760.000000, 318.000000)">
                <g id="关闭" transform="translate(344.000000, 38.000000)">
                    <rect id="矩形" fill="#000000" opacity="0" x="0" y="0" width="24" height="24"></rect>
                    <path d="M13.8613281,12.4847656 L18.6832031,7.66289063 C19.0628906,7.28320312 19.0628906,6.66601562 18.6832031,6.28476563 C18.3035156,5.90507813 17.6863281,5.90507813 17.3050781,6.28476563 L12.4847656,11.1082031 L7.66289062,6.28789062 C7.28320312,5.90820312 6.66601562,5.90820312 6.28476563,6.28789062 C5.90507813,6.66757812 5.90507813,7.28476562 6.28476563,7.66601562 L11.1066406,12.4863281 L6.28476562,17.3066406 C5.90507813,17.6863281 5.90507813,18.3035156 6.28476562,18.6847656 C6.66445312,19.0644531 7.28164062,19.0644531 7.66289062,18.6847656 L12.4847656,13.8628906 L17.3066406,18.6847656 C17.6863281,19.0644531 18.3035156,19.0644531 18.6847656,18.6847656 C19.0644531,18.3050781 19.0644531,17.6878906 18.6847656,17.3066406 L13.8613281,12.4847656 Z" id="路径" fill="#959595"></path>
                </g>
            </g>
        </g>
    </g>
</svg>